<svg width="19" height="17" viewBox="0 0 19 17" fill="none" xmlns="http://www.w3.org/2000/svg">
<path d="M7.21906 9.02099H10.8275C11.0667 9.02099 11.2962 8.92595 11.4653 8.75677C11.6345 8.5876 11.7296 8.35814 11.7296 8.11889C11.7296 7.87964 11.6345 7.65019 11.4653 7.48101C11.2962 7.31184 11.0667 7.21679 10.8275 7.21679H7.21906C6.9798 7.21679 6.75035 7.31184 6.58118 7.48101C6.412 7.65019 6.31696 7.87964 6.31696 8.11889C6.31696 8.35814 6.412 8.5876 6.58118 8.75677C6.75035 8.92595 6.9798 9.02099 7.21906 9.02099V9.02099ZM15.3379 0H2.70856C2.0739 0.00492399 1.46115 0.232753 0.97744 0.643662C0.493728 1.05457 0.169822 1.62241 0.0623449 2.24793C-0.0451323 2.87345 0.0706566 3.51684 0.389471 4.06564C0.708285 4.61444 1.20984 5.03373 1.80646 5.25022V13.5315C1.80646 14.2492 2.09159 14.9376 2.59912 15.4451C3.10665 15.9527 3.795 16.2378 4.51276 16.2378H13.5337C14.2515 16.2378 14.9399 15.9527 15.4474 15.4451C15.9549 14.9376 16.24 14.2492 16.24 13.5315V5.25022C16.8367 5.03373 17.3382 4.61444 17.657 4.06564C17.9759 3.51684 18.0916 2.87345 17.9842 2.24793C17.8767 1.62241 17.5528 1.05457 17.0691 0.643662C16.5854 0.232753 15.9726 0.00492399 15.3379 0ZM14.4358 13.5315C14.4358 13.7707 14.3408 14.0002 14.1716 14.1694C14.0025 14.3385 13.773 14.4336 13.5337 14.4336H4.51276C4.27351 14.4336 4.04406 14.3385 3.87488 14.1694C3.7057 14.0002 3.61066 13.7707 3.61066 13.5315V5.41259H14.4358V13.5315ZM15.3379 3.6084H2.70856C2.46931 3.6084 2.23986 3.51335 2.07068 3.34418C1.9015 3.175 1.80646 2.94555 1.80646 2.7063C1.80646 2.46705 1.9015 2.23759 2.07068 2.06842C2.23986 1.89924 2.46931 1.8042 2.70856 1.8042H15.3379C15.5772 1.8042 15.8067 1.89924 15.9758 2.06842C16.145 2.23759 16.24 2.46705 16.24 2.7063C16.24 2.94555 16.145 3.175 15.9758 3.34418C15.8067 3.51335 15.5772 3.6084 15.3379 3.6084Z" fill="#1e1e1e"/>
</svg>
