<svg xmlns="http://www.w3.org/2000/svg" width="24.934" height="20.289" viewBox="0 0 24.934 20.289"><path d="M45.034,66.4a10.342,10.342,0,0,1-2.938.808,5.133,5.133,0,0,0,2.251-2.832A10.165,10.165,0,0,1,41.1,65.622a5.114,5.114,0,0,0-8.85,3.5,5.008,5.008,0,0,0,.132,1.168,14.5,14.5,0,0,1-10.546-5.352,5.126,5.126,0,0,0,1.59,6.837,5,5,0,0,1-2.325-.639V71.2A5.12,5.12,0,0,0,25.2,76.216a5.149,5.149,0,0,1-1.347.18,4.826,4.826,0,0,1-.962-.1,5.124,5.124,0,0,0,4.782,3.556,10.256,10.256,0,0,1-6.356,2.193,10.367,10.367,0,0,1-1.221-.074,14.3,14.3,0,0,0,7.83,2.314A14.468,14.468,0,0,0,42.5,69.717c0-.222-.005-.444-.016-.66A10.413,10.413,0,0,0,45.034,66.4Z" transform="translate(-20.1 -64)" fill="#1e1e1e"/></svg>