<svg xmlns="http://www.w3.org/2000/svg" xmlns:xlink="http://www.w3.org/1999/xlink" width="85.338" height="86.744" viewBox="0 0 85.338 86.744"><defs><linearGradient id="a" x1="0.5" y1="-0.162" x2="0.5" y2="1" gradientUnits="objectBoundingBox"><stop offset="0" stop-color="#fba86f"/><stop offset="1" stop-color="#d95b05"/></linearGradient></defs><g transform="translate(-4.1)"><path d="M69.548,45.016V40.594A2.842,2.842,0,0,0,66.7,37.747H62.042a3.032,3.032,0,0,0,.2-1.033V31.157a2.616,2.616,0,0,0-.2-1.033H66.7a2.842,2.842,0,0,0,2.846-2.846V21.72a2.616,2.616,0,0,0-.2-1.033h3.727a2.842,2.842,0,0,0,2.846-2.846V12.283a2.842,2.842,0,0,0-2.846-2.846h-10.1a3.032,3.032,0,0,0,.2-1.033V2.846A2.863,2.863,0,0,0,60.331,0H16.705a2.842,2.842,0,0,0-2.846,2.846V8.4a2.842,2.842,0,0,0,2.846,2.846H26.8a3.032,3.032,0,0,0-.2,1.033V17.84a2.616,2.616,0,0,0,.2,1.033H23.075a2.842,2.842,0,0,0-2.846,2.846v5.557a2.616,2.616,0,0,0,.2,1.033H15.773a2.842,2.842,0,0,0-2.846,2.846v5.557a2.842,2.842,0,0,0,2.846,2.846h4.659a3.032,3.032,0,0,0-.2,1.033v5.557a2.616,2.616,0,0,0,.2,1.033H14.57a2.842,2.842,0,0,0-2.846,2.846v5.557a2.616,2.616,0,0,0,.2,1.033H6.946A2.842,2.842,0,0,0,4.1,59.467v5.557a2.842,2.842,0,0,0,2.846,2.846h4.981a3.032,3.032,0,0,0-.2,1.033v5.557a2.842,2.842,0,0,0,2.846,2.846h4.778a3.032,3.032,0,0,0-.2,1.033V83.9a2.842,2.842,0,0,0,2.846,2.846H65.617a2.865,2.865,0,0,0,.762-.119c.729.068,1.457.119,2.186.119a20.876,20.876,0,0,0,.983-41.729ZM66.7,39.56a1.027,1.027,0,0,1,1.033,1.033V45a20.78,20.78,0,0,0-8.488,2.186H23.075a1.027,1.027,0,0,1-1.033-1.033V40.594a1.027,1.027,0,0,1,1.033-1.033H66.7Zm6.37-28.31a1.027,1.027,0,0,1,1.033,1.033V17.84a1.027,1.027,0,0,1-1.033,1.033H29.446a1.027,1.027,0,0,1-1.033-1.033V12.283a1.027,1.027,0,0,1,1.033-1.033ZM16.705,9.437A1.027,1.027,0,0,1,15.672,8.4V2.846a1.027,1.027,0,0,1,1.033-1.033H60.331a1.027,1.027,0,0,1,1.033,1.033V8.4a1.027,1.027,0,0,1-1.033,1.033H16.705ZM22.042,21.72a1.027,1.027,0,0,1,1.033-1.033H66.7a1.027,1.027,0,0,1,1.033,1.033v5.557A1.027,1.027,0,0,1,66.7,28.31H23.075a1.027,1.027,0,0,1-1.033-1.033ZM15.773,37.747a1.027,1.027,0,0,1-1.033-1.033V31.157a1.027,1.027,0,0,1,1.033-1.033H59.4a1.027,1.027,0,0,1,1.033,1.033v5.557A1.027,1.027,0,0,1,59.4,37.747ZM13.537,50.03A1.027,1.027,0,0,1,14.57,49H56.282a21.086,21.086,0,0,0-6.438,7.624H14.57a1.027,1.027,0,0,1-1.033-1.033ZM6.946,66.058a1.027,1.027,0,0,1-1.033-1.033V59.467a1.027,1.027,0,0,1,1.033-1.033h42.1a20.787,20.787,0,0,0-1.372,7.438v.2H6.946Zm7.624,9.437a1.027,1.027,0,0,1-1.033-1.033V68.9a1.027,1.027,0,0,1,1.033-1.033H47.777a20.444,20.444,0,0,0,2.27,7.624Zm7.421,9.437A1.027,1.027,0,0,1,20.958,83.9V78.341a1.027,1.027,0,0,1,1.033-1.033H51.115a20.92,20.92,0,0,0,8.979,7.624Zm46.574,0A19.077,19.077,0,1,1,87.642,65.854,19.1,19.1,0,0,1,68.565,84.931Z" fill="url(#a)"/><path d="M308.6,297.2a15.5,15.5,0,1,0,15.5,15.5A15.52,15.52,0,0,0,308.6,297.2Zm0,29.208A13.706,13.706,0,1,1,322.308,312.7,13.724,13.724,0,0,1,308.6,326.408Z" transform="translate(-240.037 -246.848)" fill="url(#a)"/><path d="M69.548,45.016V40.594A2.842,2.842,0,0,0,66.7,37.747H62.042a3.032,3.032,0,0,0,.2-1.033V31.157a2.616,2.616,0,0,0-.2-1.033H66.7a2.842,2.842,0,0,0,2.846-2.846V21.72a2.616,2.616,0,0,0-.2-1.033h3.727a2.842,2.842,0,0,0,2.846-2.846V12.283a2.842,2.842,0,0,0-2.846-2.846h-10.1a3.032,3.032,0,0,0,.2-1.033V2.846A2.863,2.863,0,0,0,60.331,0H16.705a2.842,2.842,0,0,0-2.846,2.846V8.4a2.842,2.842,0,0,0,2.846,2.846H26.8a3.032,3.032,0,0,0-.2,1.033V17.84a2.616,2.616,0,0,0,.2,1.033H23.075a2.842,2.842,0,0,0-2.846,2.846v5.557a2.616,2.616,0,0,0,.2,1.033H15.773a2.842,2.842,0,0,0-2.846,2.846v5.557a2.842,2.842,0,0,0,2.846,2.846h4.659a3.032,3.032,0,0,0-.2,1.033v5.557a2.616,2.616,0,0,0,.2,1.033H14.57a2.842,2.842,0,0,0-2.846,2.846v5.557a2.616,2.616,0,0,0,.2,1.033H6.946A2.842,2.842,0,0,0,4.1,59.467v5.557a2.842,2.842,0,0,0,2.846,2.846h4.981a3.032,3.032,0,0,0-.2,1.033v5.557a2.842,2.842,0,0,0,2.846,2.846h4.778a3.032,3.032,0,0,0-.2,1.033V83.9a2.842,2.842,0,0,0,2.846,2.846H65.617a2.865,2.865,0,0,0,.762-.119c.729.068,1.457.119,2.186.119a20.876,20.876,0,0,0,.983-41.729ZM66.7,39.56a1.027,1.027,0,0,1,1.033,1.033V45a20.78,20.78,0,0,0-8.488,2.186H23.075a1.027,1.027,0,0,1-1.033-1.033V40.594a1.027,1.027,0,0,1,1.033-1.033H66.7Zm6.37-28.31a1.027,1.027,0,0,1,1.033,1.033V17.84a1.027,1.027,0,0,1-1.033,1.033H29.446a1.027,1.027,0,0,1-1.033-1.033V12.283a1.027,1.027,0,0,1,1.033-1.033ZM16.705,9.437A1.027,1.027,0,0,1,15.672,8.4V2.846a1.027,1.027,0,0,1,1.033-1.033H60.331a1.027,1.027,0,0,1,1.033,1.033V8.4a1.027,1.027,0,0,1-1.033,1.033H16.705ZM22.042,21.72a1.027,1.027,0,0,1,1.033-1.033H66.7a1.027,1.027,0,0,1,1.033,1.033v5.557A1.027,1.027,0,0,1,66.7,28.31H23.075a1.027,1.027,0,0,1-1.033-1.033ZM15.773,37.747a1.027,1.027,0,0,1-1.033-1.033V31.157a1.027,1.027,0,0,1,1.033-1.033H59.4a1.027,1.027,0,0,1,1.033,1.033v5.557A1.027,1.027,0,0,1,59.4,37.747ZM13.537,50.03A1.027,1.027,0,0,1,14.57,49H56.282a21.086,21.086,0,0,0-6.438,7.624H14.57a1.027,1.027,0,0,1-1.033-1.033ZM6.946,66.058a1.027,1.027,0,0,1-1.033-1.033V59.467a1.027,1.027,0,0,1,1.033-1.033h42.1a20.787,20.787,0,0,0-1.372,7.438v.2H6.946Zm7.624,9.437a1.027,1.027,0,0,1-1.033-1.033V68.9a1.027,1.027,0,0,1,1.033-1.033H47.777a20.444,20.444,0,0,0,2.27,7.624Zm7.421,9.437A1.027,1.027,0,0,1,20.958,83.9V78.341a1.027,1.027,0,0,1,1.033-1.033H51.115a20.92,20.92,0,0,0,8.979,7.624Zm46.574,0A19.077,19.077,0,1,1,87.642,65.854,19.1,19.1,0,0,1,68.565,84.931Z" fill="url(#a)"/><path d="M308.6,297.2a15.5,15.5,0,1,0,15.5,15.5A15.52,15.52,0,0,0,308.6,297.2Zm0,29.208A13.706,13.706,0,1,1,322.308,312.7,13.724,13.724,0,0,1,308.6,326.408Z" transform="translate(-240.037 -246.848)" fill="url(#a)"/><path d="M362.159,337.238V331.41a2.94,2.94,0,0,1,2.05,2.8.9.9,0,0,0,1.8,0,4.745,4.745,0,0,0-3.863-4.659V328.6a.9.9,0,0,0-1.8,0v.949a4.755,4.755,0,0,0,0,9.335v5.811a2.956,2.956,0,0,1-2.05-2.8.9.9,0,1,0-1.8,0,4.765,4.765,0,0,0,3.846,4.676v.949a.9.9,0,1,0,1.8,0v-.949A4.78,4.78,0,0,0,366,341.9,4.714,4.714,0,0,0,362.159,337.238Zm-3.846-3.05a2.956,2.956,0,0,1,2.05-2.8v5.591A2.956,2.956,0,0,1,358.313,334.189Zm3.846,10.5V339.1a2.931,2.931,0,0,1,0,5.591Z" transform="translate(-292.696 -272.18)" fill="url(#a)"/></g></svg>