<svg xmlns="http://www.w3.org/2000/svg" viewBox="164.1 387.2 128.9 144.40000000000003">
  <path d="M228.5,387.2l44.7,13.5c0.6,0.3,1.2,0.8,1.5,1.4s0.4,1.4,0.1,2c-0.2,0.7-0.6,1.2-1.2,1.6  c-0.6,0.4-1.3,0.5-2,0.4l-43.1-13l-43,13c-0.7,0.1-1.4,0-2-0.4c-0.6-0.4-1-0.9-1.2-1.6c-0.2-0.7-0.2-1.4,0.1-2  c0.3-0.6,0.8-1.1,1.5-1.4L228.5,387.2z

M293,408.7c-0.1-0.6-0.4-1.2-0.8-1.6c-0.4-0.4-1-0.7-1.6-0.8c-0.6-0.1-1.2,0-1.8,0.3c-0.5,0.3-1,0.7-1.3,1.3  l-25.9,50.6h-66.1l-25.9-50.6c-0.3-0.5-0.7-0.9-1.2-1.2c-0.5-0.3-1.1-0.4-1.7-0.4c-0.6,0.1-1.3,0.3-1.7,0.8c-0.5,0.4-0.8,1-0.9,1.7  c-2.4,16.4-1.5,33,2.5,49.1C173,483,189,512.3,227.3,531l1.2,0.6l1.2-0.6c38.2-18.6,54.4-48,60.7-73.2  C294.5,441.7,295.4,425,293,408.7z M172.2,456.4c-3-12.4-4.2-25.1-3.4-37.8l22.5,43.9l30.5,59.2  C191.1,503.9,177.7,478.5,172.2,456.4z M228.5,522.3l-30.1-58.2h60.2L228.5,522.3z M285,456.4c-5.6,22.1-19,47.5-49.7,65.3  l30.6-59.1l22.5-43.9C289.2,431.3,288,444,285,456.4z" fill="#000000"/>
</svg>