<svg xmlns="http://www.w3.org/2000/svg" width="94" height="94.775" viewBox="0 0 94 94.775">
  <g id="icon-farming" transform="translate(-2 -1.615)" style="isolation: isolate">
    <path id="Path_58" data-name="Path 58" d="M18.853,60.717l-1.5,1.276L13.409,57.98,9.466,61.994l-1.5-1.275V56.288h-2V81.71l.028.423,6.413,5.439v8.817h2V87.575L20.5,82.4l.353-.316v-25.8h-2Zm0,13.64-4.446,3.774v-4.2l4.445-3.774ZM7.963,70.163l4.444,3.769v4.2L7.963,74.36v-4.2Zm10.89-2.626L14.408,71.31v-4.2l4.445-3.774Zm-5.444-6.7,2.412,2.456-2.413,2.048L11,63.292Zm-1,6.277v4.2L7.963,67.54v-4.2ZM7.963,81.181v-4.2l4.444,3.769v4.2Zm6.444,3.77v-4.2l4.446-3.774v4.2ZM54.458,82.4l.353-.316v-25.8h-2v4.428l-1.5,1.276L47.368,57.98l-3.943,4.014-1.5-1.275V56.288h-2V81.623l.042.519,6.4,5.43v8.817h2V87.575Zm-6.092,2.549v-4.2l4.446-3.774v4.2ZM41.922,70.162l4.444,3.769v4.2l-4.444-3.77Zm10.89,4.194L48.366,78.13v-4.2l4.445-3.774Zm0-6.82L48.366,71.31v-4.2l4.445-3.774Zm-5.444-6.7L49.78,63.29l-2.413,2.048-2.413-2.047Zm-1,6.277v4.2l-4.444-3.77v-4.2ZM41.922,81.18v-4.2l4.444,3.769v4.2ZM30.836,33,27.5,36.4l-1.1-.936v-3.67h-2V53.258l.022.432,5.417,4.6v7.373h2V58.286l5.089-4.321.353-.314V31.794h-2v3.668l-1.1.937Zm0,2.854L32.645,37.7l-1.809,1.536L29.026,37.7Zm4.442,11.124L31.835,49.9V46.767l3.442-2.923Zm-8.884-3.133,3.442,2.919V49.9l-3.442-2.919ZM29.836,41v3.137l-3.442-2.919V38.087ZM26.393,52.743V49.606l3.442,2.919v3.137Zm5.442,2.919V52.526L35.278,49.6v3.136Zm3.442-14.441-3.442,2.923V41.007l3.442-2.923Zm23.6-9.426V53.284l.032.416,5.405,4.585v7.373h2V58.286L71.4,53.965l.353-.314V31.794h-2v3.668l-1.1.937L65.323,33l-3.339,3.4-1.1-.936v-3.67h-2ZM69.764,46.979,66.322,49.9V46.767l3.442-2.923ZM64.322,49.9,60.88,46.98V43.846l3.442,2.919ZM60.88,52.74V49.606l3.442,2.919v3.137Zm5.442,2.919V52.526L69.765,49.6v3.136Zm3.442-14.441-3.442,2.923V41.007l3.442-2.923Zm-4.441-5.365L67.132,37.7l-1.809,1.536L63.513,37.7Zm-1,5.151v3.138l-3.442-2.92V38.087ZM89.4,82.4l.352-.316v-25.8h-2v4.429l-1.5,1.276L82.305,57.98l-3.943,4.015-1.5-1.275V56.288h-2V81.623l.041.519,6.4,5.431V96.39h2V87.574Zm-6.1,2.551v-4.2l4.446-3.775v4.2ZM76.859,70.162l4.445,3.77v4.2l-4.445-3.77ZM87.75,74.356,83.3,78.13v-4.2l4.446-3.774Zm0-6.82L83.3,71.31v-4.2l4.445-3.774Zm-5.444-6.7,2.412,2.456L82.3,65.338l-2.413-2.047Zm-1,6.278v4.2l-4.445-3.77v-4.2ZM76.859,81.18v-4.2L81.3,80.75v4.2Z" fill="#1e1e1e"/>
    <path id="Path_59" data-name="Path 59" d="M79.314,17.836,81.475,20l2.164-2.164,1.453,1.455,1.415-1.413L83.64,15.006,81.476,17.17l-2.161-2.164-2.871,2.872,1.414,1.414Z" fill="#1e1e1e"/>
    <path id="Path_60" data-name="Path 60" d="M90.738,3.35l-2.6,2.6-2.594-2.6-3.3,3.307,1.414,1.414L85.545,6.18l2.594,2.6,2.6-2.6,1.887,1.89L94.04,6.657Z" fill="#1e1e1e"/>
    <path id="Path_61" data-name="Path 61" d="M71.9,3.961l-3.13,3.13-3.124-3.13L61.81,7.8l1.414,1.414,2.422-2.421L68.77,9.92,71.9,6.791l2.416,2.421L75.732,7.8Z" fill="#1e1e1e"/>
    <path id="Path_62" data-name="Path 62" d="M29.875,15.891H5.555c0-.1-2.47-6.2,3.37-7.72a7.4,7.4,0,0,1,14.71.06,5.408,5.408,0,0,1,6.01,2.16,5.627,5.627,0,0,1,.23,5.5Zm23.45,3.7a5.545,5.545,0,1,1-5.55-5.55,5.545,5.545,0,0,1,5.55,5.55Z" fill="#1e1e1e"/>
    <rect id="Rectangle_87" data-name="Rectangle 87" width="2" height="3.818" transform="translate(46.78 8.313)" fill="#1e1e1e"/>
    <rect id="Rectangle_88" data-name="Rectangle 88" width="3.819" height="2.001" transform="translate(40.508 10.91) rotate(45)" fill="#1e1e1e"/>
    <rect id="Rectangle_89" data-name="Rectangle 89" width="3.821" height="2" transform="translate(36.498 18.586)" fill="#1e1e1e"/>
    <rect id="Rectangle_90" data-name="Rectangle 90" width="2.001" height="3.819" transform="translate(41.795 24.151) rotate(45)" fill="#1e1e1e"/>
    <rect id="Rectangle_91" data-name="Rectangle 91" width="2" height="3.818" transform="translate(46.78 27.04)" fill="#1e1e1e"/>
    <rect id="Rectangle_92" data-name="Rectangle 92" width="3.819" height="2.001" transform="translate(55.047 28.26) rotate(-135)" fill="#1e1e1e"/>
    <rect id="Rectangle_93" data-name="Rectangle 93" width="3.821" height="2" transform="translate(55.24 18.586)" fill="#1e1e1e"/>
    <rect id="Rectangle_94" data-name="Rectangle 94" width="2.001" height="3.819" transform="translate(55.048 10.91) rotate(45)" fill="#1e1e1e"/>
    <rect id="Rectangle_95" data-name="Rectangle 95" width="3" height="2" transform="translate(34.577 91.472)" fill="#1e1e1e"/>
    <rect id="Rectangle_96" data-name="Rectangle 96" width="3" height="2" transform="translate(16.577 91.472)" fill="#1e1e1e"/>
    <rect id="Rectangle_97" data-name="Rectangle 97" width="3" height="2" transform="translate(28.577 91.472)" fill="#1e1e1e"/>
    <rect id="Rectangle_98" data-name="Rectangle 98" width="2.305" height="2" transform="translate(40.577 91.472)" fill="#1e1e1e"/>
    <rect id="Rectangle_99" data-name="Rectangle 99" width="3" height="2" transform="translate(22.577 91.472)" fill="#1e1e1e"/>
    <rect id="Rectangle_100" data-name="Rectangle 100" width="2.305" height="2" transform="translate(77.148 91.472)" fill="#1e1e1e"/>
    <rect id="Rectangle_101" data-name="Rectangle 101" width="3" height="2" transform="translate(71.148 91.472)" fill="#1e1e1e"/>
    <rect id="Rectangle_102" data-name="Rectangle 102" width="3" height="2" transform="translate(53.148 91.472)" fill="#1e1e1e"/>
    <rect id="Rectangle_103" data-name="Rectangle 103" width="3" height="2" transform="translate(65.148 91.472)" fill="#1e1e1e"/>
    <rect id="Rectangle_104" data-name="Rectangle 104" width="3" height="2" transform="translate(59.148 91.472)" fill="#1e1e1e"/>
    <rect id="Rectangle_105" data-name="Rectangle 105" width="3" height="2" transform="translate(93 91.552)" fill="#1e1e1e"/>
    <rect id="Rectangle_106" data-name="Rectangle 106" width="3" height="2" transform="translate(87 91.552)" fill="#1e1e1e"/>
    <rect id="Rectangle_107" data-name="Rectangle 107" width="3" height="2" transform="translate(2 91.552)" fill="#1e1e1e"/>
    <rect id="Rectangle_108" data-name="Rectangle 108" width="3" height="2" transform="translate(8 91.552)" fill="#1e1e1e"/>
    <rect id="Rectangle_109" data-name="Rectangle 109" width="3" height="2" transform="translate(23.308 70.7)" fill="#1e1e1e"/>
    <rect id="Rectangle_110" data-name="Rectangle 110" width="3" height="2" transform="translate(35.308 70.7)" fill="#1e1e1e"/>
    <rect id="Rectangle_111" data-name="Rectangle 111" width="3" height="2" transform="translate(29.308 70.7)" fill="#1e1e1e"/>
    <rect id="Rectangle_112" data-name="Rectangle 112" width="3" height="2" transform="translate(57.795 70.7)" fill="#1e1e1e"/>
    <rect id="Rectangle_113" data-name="Rectangle 113" width="3" height="2" transform="translate(69.795 70.7)" fill="#1e1e1e"/>
    <rect id="Rectangle_114" data-name="Rectangle 114" width="3" height="2" transform="translate(63.795 70.7)" fill="#1e1e1e"/>
  </g>
</svg>
