<svg width="15" height="18" viewBox="0 0 15 18" fill="none" xmlns="http://www.w3.org/2000/svg">
<path d="M14.4 6.246C14.3906 6.16332 14.3725 6.08187 14.346 6.003V5.922C14.3027 5.82946 14.245 5.7444 14.175 5.67L8.775 0.27C8.7006 0.199995 8.61554 0.142273 8.523 0.0989999C8.49613 0.0951841 8.46887 0.0951841 8.442 0.0989999C8.35057 0.0465671 8.2496 0.0129098 8.145 0H2.7C1.98392 0 1.29716 0.284464 0.790812 0.790812C0.284464 1.29716 0 1.98392 0 2.7V15.3C0 16.0161 0.284464 16.7028 0.790812 17.2092C1.29716 17.7155 1.98392 18 2.7 18H11.7C12.4161 18 13.1028 17.7155 13.6092 17.2092C14.1155 16.7028 14.4 16.0161 14.4 15.3V6.246ZM9 3.069L11.331 5.4H9.9C9.6613 5.4 9.43239 5.30518 9.2636 5.1364C9.09482 4.96761 9 4.73869 9 4.5V3.069ZM12.6 15.3C12.6 15.5387 12.5052 15.7676 12.3364 15.9364C12.1676 16.1052 11.9387 16.2 11.7 16.2H2.7C2.46131 16.2 2.23239 16.1052 2.0636 15.9364C1.89482 15.7676 1.8 15.5387 1.8 15.3V2.7C1.8 2.46131 1.89482 2.23239 2.0636 2.0636C2.23239 1.89482 2.46131 1.8 2.7 1.8H7.2V4.5C7.2 5.21608 7.48446 5.90284 7.99081 6.40919C8.49716 6.91554 9.18392 7.2 9.9 7.2H12.6V15.3ZM9.261 9.261L6.3 12.231L5.139 11.061C4.96953 10.8915 4.73967 10.7963 4.5 10.7963C4.26033 10.7963 4.03047 10.8915 3.861 11.061C3.69153 11.2305 3.59632 11.4603 3.59632 11.7C3.59632 11.9397 3.69153 12.1695 3.861 12.339L5.661 14.139C5.74467 14.2234 5.84421 14.2903 5.95388 14.336C6.06355 14.3817 6.18119 14.4052 6.3 14.4052C6.41881 14.4052 6.53645 14.3817 6.64612 14.336C6.75579 14.2903 6.85533 14.2234 6.939 14.139L10.539 10.539C10.7085 10.3695 10.8037 10.1397 10.8037 9.9C10.8037 9.66033 10.7085 9.43047 10.539 9.261C10.3695 9.09153 10.1397 8.99632 9.9 8.99632C9.66033 8.99632 9.43047 9.09153 9.261 9.261V9.261Z" fill="black"/>
</svg>
