<svg
  xmlns="http://www.w3.org/2000/svg"
  xmlns:xlink="http://www.w3.org/1999/xlink"
  width="95.908"
  height="95.889"
  viewBox="0 0 95.908 95.889"
><defs><linearGradient id="a" x1="0.5" x2="0.5" y2="1" gradientUnits="objectBoundingBox"><stop
        offset="0"
        stop-color="#fba86f"
      /><stop offset="1" stop-color="#e84142" /></linearGradient></defs><g transform="translate(-1 -1.012)"><path
      d="M69.749,33.633a1.657,1.657,0,0,0,2.166-.155,1.5,1.5,0,0,0-.155-2.166l-4.022-3.4a4.625,4.625,0,0,0,1.7-3.558,4.759,4.759,0,0,0-2.475-4.022l3.248-7.116a4.6,4.6,0,0,0-1.7-5.724,4.3,4.3,0,0,0-5.724.928c-.619.619-1.238,1.083-2.011.155,0,0-4.95-6.188-5.1-6.342a4.736,4.736,0,0,0-6.342,0L44.38,8.419a1.126,1.126,0,0,1-1.856,0,4.525,4.525,0,0,0-5.878-.928,4.291,4.291,0,0,0-1.7,5.569l3.094,6.961a4.459,4.459,0,0,0-2.475,4.022,4.4,4.4,0,0,0,1.7,3.558L33.242,31A47.274,47.274,0,0,0,17,66.582V70.6a1.547,1.547,0,1,0,3.094,0V66.582A43.268,43.268,0,0,1,35.408,33.633l5.414-4.8h4.022v4.641a1.547,1.547,0,1,0,3.094,0V28.838H57.22V39.666a1.547,1.547,0,0,0,3.094,0V28.838h4.022ZM40.2,25.744a1.547,1.547,0,1,1,0-3.094H53.662a1.547,1.547,0,1,0,0-3.094H41.132l-3.4-7.735c-.464-1.083.309-1.7.619-1.7a1.146,1.146,0,0,1,1.7.309,4.779,4.779,0,0,0,3.094,1.7A4.548,4.548,0,0,0,46.7,10.739l4.95-6.188a1.412,1.412,0,0,1,1.856,0l4.95,6.188a3.8,3.8,0,0,0,3.248,1.238,4.354,4.354,0,0,0,3.248-1.547,1.321,1.321,0,0,1,1.856-.309,1.181,1.181,0,0,1,.773,1.7l-3.558,7.735H60.313a1.547,1.547,0,1,0,0,3.094h4.641a1.547,1.547,0,1,1,0,3.094Z"
      transform="translate(8.75 0)"
      fill="url(#a)"
    /><path
      d="M48.575,38.477a4.558,4.558,0,0,1,4.641,4.641,1.547,1.547,0,1,0,3.094,0,7.781,7.781,0,0,0-6.188-7.58v-4.8a1.547,1.547,0,0,0-3.094,0v4.8a7.781,7.781,0,0,0-6.188,7.58,7.659,7.659,0,0,0,7.735,7.735,4.641,4.641,0,1,1-4.641,4.641,1.547,1.547,0,1,0-3.094,0,7.781,7.781,0,0,0,6.188,7.58v4.8a1.547,1.547,0,0,0,3.094,0v-4.8a7.781,7.781,0,0,0,6.188-7.58,7.659,7.659,0,0,0-7.735-7.735,4.641,4.641,0,1,1,0-9.281ZM84.153,66.321V54.564A46.214,46.214,0,0,0,72.242,23.472a1.535,1.535,0,1,0-2.32,2.011A43.348,43.348,0,0,1,81.06,54.41V66.321A15.515,15.515,0,0,1,65.591,81.79H58.32a1.547,1.547,0,1,0,0,3.094H82.607a1.547,1.547,0,1,0,0-3.094H75.8A18.4,18.4,0,0,0,84.153,66.321ZM25.68,38.477a1.487,1.487,0,0,0,1.392-.928A41.539,41.539,0,0,1,36.2,25.637a1.535,1.535,0,1,0-2.011-2.32,42.829,42.829,0,0,0-9.745,12.839,1.629,1.629,0,0,0,.619,2.011C25.216,38.477,25.371,38.477,25.68,38.477Z"
      transform="translate(12.755 12.018)"
      fill="url(#a)"
    /><path
      d="M79.737,86.546a1.533,1.533,0,0,0-1.238,1.7c.309,1.547,1.7,1.392,1.7,1.238A12.624,12.624,0,0,0,90.875,77.11a1.547,1.547,0,0,0-3.094,0A9.656,9.656,0,0,1,79.737,86.546Zm9.436-15.469a1.461,1.461,0,0,0,1.547-1.547V66.437a1.547,1.547,0,0,0-3.094,0v3.094A1.461,1.461,0,0,0,89.174,71.077ZM64.114,92.734h-19.8A15.515,15.515,0,0,1,28.844,77.265a1.547,1.547,0,0,0-3.094,0A18.4,18.4,0,0,0,34.1,92.734H19.563A15.515,15.515,0,0,1,4.094,77.265V68.6A43.334,43.334,0,0,1,14.613,40.294a1.535,1.535,0,0,0-2.32-2.011A46.28,46.28,0,0,0,1,68.6v8.663A18.4,18.4,0,0,0,9.353,92.734H2.547a1.547,1.547,0,1,0,0,3.094H64.114a1.547,1.547,0,1,0,0-3.094ZM19.408,35.653l5.414-4.8h4.022V35.5a1.547,1.547,0,1,0,3.094,0V30.858h6.188a1.547,1.547,0,0,0,0-3.094H24.2a1.547,1.547,0,0,1,0-3.094H41.065a1.547,1.547,0,0,0,0-3.094H25.132l-3.558-7.735c-.464-1.083.309-1.7.619-1.7a1.321,1.321,0,0,1,1.856.309A4.354,4.354,0,0,0,27.3,14a4.7,4.7,0,0,0,3.249-1.238L35.5,6.572a1.408,1.408,0,0,1,1.856,0l1.7,2.166a2.1,2.1,0,0,0,2.32,0,1.664,1.664,0,0,0,.309-2.166l-1.856-2.32a4.577,4.577,0,0,0-6.342,0l-5.1,6.342c-.464.155-1.083.773-2.011-.155a4.5,4.5,0,0,0-5.878-.928,4.434,4.434,0,0,0-1.7,5.724L22.038,22.2a4.759,4.759,0,0,0-2.475,4.022,4.4,4.4,0,0,0,1.7,3.558l-4.022,3.4a1.5,1.5,0,0,0-.155,2.166A1.577,1.577,0,0,0,19.408,35.653Z"
      transform="translate(0 1.074)"
      fill="url(#a)"
    /><path
      d="M15.674,67.75s1.547.155,1.7-1.238a1.449,1.449,0,0,0-1.238-1.7,9.617,9.617,0,0,1-8.044-9.436,1.461,1.461,0,0,0-1.547-1.547A1.461,1.461,0,0,0,5,55.375,12.485,12.485,0,0,0,15.674,67.75ZM6.547,49.188a1.461,1.461,0,0,0,1.547-1.547V44.547A1.461,1.461,0,0,0,6.547,43,1.461,1.461,0,0,0,5,44.547v3.094A1.461,1.461,0,0,0,6.547,49.188Z"
      transform="translate(2.188 22.963)"
      fill="url(#a)"
    /></g></svg>
