<svg xmlns="http://www.w3.org/2000/svg" width="46.548" height="46.548" viewBox="0 0 46.548 46.548"><path d="M25.29,8.69a4.015,4.015,0,0,0-2.3-2.3,6.706,6.706,0,0,0-2.25-.417c-1.278-.058-1.661-.073-4.9-.073s-3.62.015-4.9.073A6.706,6.706,0,0,0,8.69,6.39a4.015,4.015,0,0,0-2.3,2.3,6.706,6.706,0,0,0-.417,2.25C5.915,12.22,5.9,12.6,5.9,15.84s.015,3.62.073,4.9a6.706,6.706,0,0,0,.417,2.252,4.015,4.015,0,0,0,2.3,2.3,6.706,6.706,0,0,0,2.25.417c1.278.058,1.661.073,4.9.073s3.62-.015,4.9-.073a6.706,6.706,0,0,0,2.252-.417,4.015,4.015,0,0,0,2.3-2.3,6.706,6.706,0,0,0,.417-2.25c.058-1.278.073-1.661.073-4.9s-.015-3.62-.073-4.9A6.706,6.706,0,0,0,25.29,8.69ZM15.84,22.066a6.226,6.226,0,1,1,6.226-6.226,6.226,6.226,0,0,1-6.226,6.226ZM22.31,10.824a1.455,1.455,0,1,1,1.455-1.455,1.455,1.455,0,0,1-1.455,1.455Z" transform="translate(7.434 7.434)" fill="#f87430"/><circle cx="4.041" cy="4.041" r="4.041" transform="translate(19.233 19.233)" fill="#f87430"/><path d="M23.674.4A23.274,23.274,0,1,0,46.948,23.674,23.274,23.274,0,0,0,23.674.4ZM35.723,28.673a8.9,8.9,0,0,1-.565,2.941,6.2,6.2,0,0,1-3.544,3.544,8.9,8.9,0,0,1-2.941.565c-1.295.058-1.707.073-5,.073s-3.7-.015-5-.073a8.9,8.9,0,0,1-2.941-.565,6.2,6.2,0,0,1-3.544-3.544,8.9,8.9,0,0,1-.565-2.941c-.058-1.295-.073-1.707-.073-5s.015-3.7.073-5a8.9,8.9,0,0,1,.565-2.941,6.2,6.2,0,0,1,3.544-3.544,8.9,8.9,0,0,1,2.941-.565c1.295-.058,1.707-.073,5-.073s3.7.015,5,.073a8.9,8.9,0,0,1,2.941.565,6.2,6.2,0,0,1,3.544,3.544,8.9,8.9,0,0,1,.565,2.941c.058,1.295.073,1.707.073,5s-.015,3.7-.073,5Z" transform="translate(-0.4 -0.4)" fill="#f87430"/></svg>