<svg width="19" height="17" viewBox="0 0 19 17" fill="none" xmlns="http://www.w3.org/2000/svg">
<path d="M9.79536 3.52759C9.62093 3.52759 9.45042 3.57932 9.30539 3.67623C9.16036 3.77313 9.04732 3.91087 8.98057 4.07202C8.91382 4.23317 8.89635 4.4105 8.93038 4.58158C8.96441 4.75265 9.0484 4.9098 9.17174 5.03314C9.29508 5.15648 9.45223 5.24047 9.6233 5.2745C9.79438 5.30853 9.97171 5.29107 10.1329 5.22432C10.294 5.15756 10.4317 5.04453 10.5287 4.89949C10.6256 4.75446 10.6773 4.58395 10.6773 4.40952C10.6773 4.17562 10.5844 3.9513 10.419 3.78591C10.2536 3.62051 10.0293 3.52759 9.79536 3.52759ZM4.77191 11.5831C4.62085 11.6703 4.49904 11.8004 4.42189 11.9568C4.34474 12.1133 4.31571 12.2891 4.33848 12.462C4.36125 12.6349 4.43479 12.7972 4.5498 12.9284C4.66481 13.0595 4.81613 13.1536 4.98461 13.1988C5.1531 13.2439 5.33119 13.2381 5.49636 13.182C5.66154 13.1259 5.80637 13.0221 5.91256 12.8838C6.01874 12.7454 6.0815 12.5786 6.0929 12.4045C6.10431 12.2305 6.06384 12.057 5.97662 11.9059C5.85966 11.7033 5.66704 11.5555 5.44111 11.495C5.21519 11.4345 4.97447 11.4662 4.77191 11.5831ZM14.8188 11.5831C14.6678 11.4959 14.4942 11.4554 14.3202 11.4668C14.1461 11.4782 13.9793 11.541 13.841 11.6472C13.7026 11.7534 13.5988 11.8982 13.5427 12.0634C13.4866 12.2285 13.4808 12.4066 13.5259 12.5751C13.5711 12.7436 13.6652 12.8949 13.7963 13.0099C13.9275 13.1249 14.0898 13.1985 14.2627 13.2212C14.4356 13.244 14.6115 13.215 14.7679 13.1378C14.9243 13.0607 15.0544 12.9389 15.1416 12.7878C15.2585 12.5853 15.2902 12.3445 15.2297 12.1186C15.1692 11.8927 15.0214 11.7001 14.8188 11.5831ZM17.3887 9.12166C16.8636 8.62784 16.2236 8.27271 15.5266 8.08839C14.8297 7.90407 14.0978 7.89637 13.3971 8.06599L13.0276 7.39308C13.5515 6.82944 13.9185 6.13825 14.0918 5.38849C14.2651 4.63873 14.2388 3.85662 14.0154 3.12023C13.792 2.38383 13.3794 1.71891 12.8187 1.19181C12.258 0.664705 11.5689 0.293867 10.8202 0.116303C10.1681 -0.036556 9.48999 -0.0399563 8.83647 0.106356C8.18295 0.252669 7.57099 0.544904 7.0464 0.961188C6.52722 1.37331 6.10811 1.89765 5.8205 2.49486C5.53289 3.09207 5.38425 3.74666 5.38573 4.40952C5.38554 5.52256 5.81231 6.59328 6.57809 7.40102L6.20857 8.06246C5.45722 7.88505 4.67241 7.90845 3.93297 8.13032C3.19352 8.35218 2.52547 8.7647 1.9959 9.32644C1.46633 9.88819 1.09388 10.5794 0.915959 11.3306C0.738038 12.0818 0.760907 12.8667 0.982269 13.6063C1.17577 14.2474 1.51194 14.8365 1.96558 15.3292C2.41922 15.822 2.97854 16.2056 3.60159 16.4513C4.16586 16.6746 4.77035 16.7783 5.37677 16.7558C5.98318 16.7333 6.57833 16.5851 7.1245 16.3207C7.67068 16.0562 8.15599 15.6812 8.5497 15.2194C8.94341 14.7576 9.23695 14.2191 9.41172 13.638L10.1764 13.6503C10.4514 14.5494 11.0076 15.3366 11.7633 15.896C12.5189 16.4554 13.4341 16.7577 14.3743 16.7583C15.3248 16.7574 16.2497 16.4504 17.0122 15.8829C17.7746 15.3154 18.334 14.5174 18.6076 13.6071C18.8475 12.8206 18.8604 11.9823 18.6448 11.1887C18.4291 10.3951 17.9937 9.67862 17.3887 9.12166V9.12166ZM16.9231 13.0859C16.8104 13.4711 16.6116 13.8256 16.3419 14.1228C16.0722 14.42 15.7385 14.6521 15.3661 14.8016C14.9936 14.951 14.592 15.014 14.1917 14.9857C13.7914 14.9574 13.4027 14.8385 13.055 14.6381C12.4813 14.3061 12.0551 13.7686 11.8626 13.1344C11.7553 12.7707 11.5334 12.4514 11.2298 12.2241C10.9262 11.9968 10.5573 11.8738 10.1781 11.8733H9.41172C9.03254 11.8739 8.6637 11.997 8.36017 12.2243C8.05663 12.4515 7.83463 12.7708 7.72724 13.1344C7.62112 13.4816 7.44423 13.8029 7.20773 14.0783C6.97124 14.3537 6.68026 14.5771 6.35315 14.7344C6.02603 14.8918 5.66986 14.9797 5.3071 14.9925C4.94434 15.0054 4.58284 14.943 4.2454 14.8092C3.62247 14.5674 3.11441 14.0984 2.82371 13.4968C2.53301 12.8951 2.48131 12.2056 2.67904 11.5673C2.87676 10.9291 3.3092 10.3895 3.88911 10.0576C4.46902 9.72562 5.15325 9.62596 5.80376 9.77869C6.17008 9.86717 6.55526 9.83395 6.90102 9.68406C7.24679 9.53417 7.53434 9.27576 7.72019 8.94792L8.10471 8.28294C8.294 7.95447 8.37214 7.57365 8.32749 7.19718C8.28283 6.82071 8.11777 6.46873 7.85689 6.19366C7.6091 5.92819 7.41901 5.61425 7.29863 5.27164C7.17824 4.92903 7.13016 4.56519 7.15742 4.20307C7.18469 3.84095 7.2867 3.48841 7.45703 3.16768C7.62735 2.84696 7.8623 2.56502 8.14704 2.33964C8.66675 1.92151 9.3255 1.71565 9.99082 1.76344C10.6561 1.81124 11.2787 2.10915 11.7333 2.59728C12.1879 3.0854 12.4409 3.72754 12.4413 4.39457C12.4417 5.06161 12.1896 5.70407 11.7356 6.19278C11.4749 6.46807 11.3098 6.82005 11.2648 7.19655C11.2199 7.57304 11.2974 7.954 11.486 8.28294L11.8697 8.94703C12.0562 9.2745 12.3439 9.5326 12.6896 9.68257C13.0354 9.83253 13.4204 9.86626 13.787 9.77869C14.236 9.67224 14.7051 9.68557 15.1473 9.81734C15.5896 9.94912 15.9895 10.1947 16.307 10.5296C16.6245 10.8644 16.8486 11.2768 16.9567 11.7254C17.0648 12.174 17.0532 12.6432 16.9231 13.0859Z" fill="#1e1e1e"/>
</svg>
