<svg xmlns="http://www.w3.org/2000/svg" width="24.58" height="20.289" viewBox="0 0 24.58 20.289"><path d="M20.91,11.022c.754-.754,1.5-2.513-1.639-.377-4.463,3.08-8.862,5.971-8.862,5.971a3.687,3.687,0,0,1-2.891.063c-1.885-.565-4.085-1.319-4.085-1.319s-1.5-.944,1.069-1.949c0,0,10.872-4.462,14.643-6.034,1.445-.628,6.346-2.638,6.346-2.638s2.263-.881,2.074,1.256c-.063.879-.565,3.96-1.068,7.29-.755,4.713-1.572,9.867-1.572,9.867s-.126,1.445-1.194,1.7a5.172,5.172,0,0,1-3.141-1.131c-.251-.188-4.713-3.017-6.348-4.4a1.191,1.191,0,0,1,.063-2.012C16.574,15.233,19.277,12.656,20.91,11.022Z" transform="translate(-2.998 -4.558)" fill="#1e1e1e"/></svg>