<svg xmlns="http://www.w3.org/2000/svg" width="46.548" height="46.548" viewBox="0 0 46.548 46.548"><path d="M25.268,2A23.274,23.274,0,1,0,48.542,25.274,23.274,23.274,0,0,0,25.268,2Zm7.4,35.266a1.642,1.642,0,0,1-2.332.818l-6.318-4.909-4.055,3.741a.7.7,0,0,1-.663.091l.777-6.955.025.02.016-.137S31.487,19.582,31.95,19.141s.314-.535.314-.535c.027-.537-.841,0-.841,0L16.359,28.3l-6.273-2.137s-.964-.346-1.054-1.106,1.086-1.164,1.086-1.164l24.943-9.909s2.05-.914,2.05.6Z" transform="translate(-1.994 -2)" fill="#f87430"/></svg>