<svg xmlns="http://www.w3.org/2000/svg" width="87.554" height="95.889" viewBox="0 0 87.554 95.889">
  <path id="icon-nft-market" d="M91.234,19.657,80.812,2.98A2.086,2.086,0,0,0,79.044,2H16.507a2.086,2.086,0,0,0-1.768.98L4.317,19.657A2.084,2.084,0,0,0,4,20.761V70.79a6.26,6.26,0,0,0,6.254,6.254H39.437V83.3a2.087,2.087,0,0,1-2.085,2.085H23.982a6.254,6.254,0,0,0-6.053,4.681L16.574,95.28a2.084,2.084,0,0,0,2.017,2.609H76.959a2.084,2.084,0,0,0,2.017-2.609l-1.355-5.217a6.254,6.254,0,0,0-6.053-4.681H58.2A2.087,2.087,0,0,1,56.114,83.3V77.044H85.3a6.26,6.26,0,0,0,6.254-6.254V20.761a2.084,2.084,0,0,0-.317-1.1ZM77.889,6.169,87.33,21.275a6.238,6.238,0,0,1-12.455-.514,2.085,2.085,0,0,0-.22-.933L67.825,6.169Zm-14.725,0,7.5,15a6.239,6.239,0,0,1-12.466-.41,2.129,2.129,0,0,0-.062-.506L54.615,6.169Zm-17.929,0h5.083l3.694,14.776a6.237,6.237,0,0,1-12.47,0Zm-4.3,0-3.52,14.086a2.129,2.129,0,0,0-.062.506,6.239,6.239,0,0,1-12.466.41l7.5-15Zm-23.274,0H27.726L20.9,19.829a2.085,2.085,0,0,0-.22.932,6.238,6.238,0,0,1-12.455.514ZM58.2,89.551H71.569a2.085,2.085,0,0,1,2.018,1.56l.677,2.609H21.287l.677-2.609a2.085,2.085,0,0,1,2.018-1.56H37.353A6.26,6.26,0,0,0,43.606,83.3V77.044h8.338V83.3A6.261,6.261,0,0,0,58.2,89.551ZM87.382,70.79A2.087,2.087,0,0,1,85.3,72.875H10.254A2.087,2.087,0,0,1,8.169,70.79V29.065a10.276,10.276,0,0,0,6.254,2.119,10.4,10.4,0,0,0,8.36-4.228,10.324,10.324,0,0,0,16.674-.013,10.279,10.279,0,0,0,16.638,0,10.34,10.34,0,0,0,16.683.023,10.328,10.328,0,0,0,14.6,2.091ZM63.022,36.3l-8.9,3.311c-1.545-1.016-3.765-3.885-5.59-1.679a2.086,2.086,0,0,0,.378,2.924l2.807,2.165-.929,9.229a4.62,4.62,0,0,0,1.744,4.119L69.3,69.57a3.331,3.331,0,0,0,4.707-.6L84.8,54.887h0a3.379,3.379,0,0,0-.587-4.692L67.447,37a4.537,4.537,0,0,0-4.425-.7Zm8.191,29.468-16.1-12.675a.475.475,0,0,1-.173-.424l.669-6.648,3.041,2.347a2.085,2.085,0,0,0,2.547-3.3l-3.181-2.454,6.463-2.4a.4.4,0,0,1,.391.064L81.011,52.979ZM62.767,52.353l3.181-4.2a2.085,2.085,0,1,1,3.324,2.516l-3.181,4.2a2.085,2.085,0,1,1-3.324-2.516ZM68.645,56.8l3.181-4.2a2.085,2.085,0,1,1,3.324,2.516l-3.181,4.2A2.085,2.085,0,1,1,68.645,56.8ZM12.338,39.522a2.085,2.085,0,0,1,2.084-2.085H31.1a2.085,2.085,0,1,1,0,4.169H14.423a2.085,2.085,0,0,1-2.085-2.084Zm0,8.338a2.085,2.085,0,0,1,2.084-2.085h27.1a2.085,2.085,0,1,1,0,4.169h-27.1a2.085,2.085,0,0,1-2.085-2.084Zm0,8.338a2.085,2.085,0,0,1,2.084-2.085h27.1a2.085,2.085,0,1,1,0,4.169h-27.1A2.085,2.085,0,0,1,12.338,56.2Zm39.606,8.338a2.085,2.085,0,0,1-2.084,2.085H14.423a2.085,2.085,0,1,1,0-4.169H49.86a2.085,2.085,0,0,1,2.085,2.084Z" transform="translate(-4 -2)" fill="#1e1e1e"/>
</svg>
