<svg xmlns="http://www.w3.org/2000/svg" width="46.547" height="46.548" viewBox="0 0 46.547 46.548"><path d="M37.48,14.165A23.274,23.274,0,1,0,60.754,37.439,23.274,23.274,0,0,0,37.48,14.165ZM48.841,31.657s.553,2.742-1.432,7.56a15.98,15.98,0,0,1-13.672,9.8c-6.771.423-10.417-2.572-10.417-2.572a11.981,11.981,0,0,0,8.529-2.376c-4.72-.619-5.4-4.167-5.4-4.167a5.928,5.928,0,0,0,2.6-.065,6.255,6.255,0,0,1-4.72-5.794,6.1,6.1,0,0,0,2.7.716,5.949,5.949,0,0,1-1.855-7.813c5.892,6.446,12.141,6.087,12.141,6.087l.028.042a5.835,5.835,0,0,1,9.961-5.36l.037-.021a7.582,7.582,0,0,0,3.613-1.237,5.315,5.315,0,0,1-2.544,3.006l.021.052c.728-.176,2.681-.654,3.208-.812A7.644,7.644,0,0,1,48.841,31.657Z" transform="translate(-14.207 -14.165)" fill="#f87430"/></svg>