<svg
  xmlns="http://www.w3.org/2000/svg"
  xmlns:xlink="http://www.w3.org/1999/xlink"
  width="96.089"
  height="95.889"
  viewBox="0 0 96.089 95.889"
><defs><linearGradient id="a" x1="0.5" x2="0.5" y2="1" gradientUnits="objectBoundingBox"><stop
        offset="0"
        stop-color="#fba86f"
      /><stop offset="1" stop-color="#e84142" /></linearGradient></defs><path
    d="M98.137,50.01A10.313,10.313,0,0,0,90.3,40.041L85.555,28.25A10.313,10.313,0,1,0,71.8,14.5L59.979,9.721a10.313,10.313,0,0,0-19.938,0L28.25,14.465A10.313,10.313,0,1,0,14.5,28.215L9.721,40.041a10.313,10.313,0,0,0,0,19.938L14.465,71.77A10.313,10.313,0,1,0,28.215,85.521l11.791,4.744a10.313,10.313,0,0,0,19.938,0l11.791-4.744A10.313,10.313,0,1,0,85.487,71.77l4.744-11.791A10.313,10.313,0,0,0,98.137,50.01ZM40.831,83.218,29.04,78.474a8.9,8.9,0,0,0-.688-1.959l12.2-12.169a17.188,17.188,0,0,0,6.016,2.509V78.13a10.313,10.313,0,0,0-5.741,5.088ZM12.2,46.572h0A3.438,3.438,0,1,1,8.758,50.01,3.438,3.438,0,0,1,12.2,46.572ZM59.189,16.8,70.98,21.546a8.9,8.9,0,0,0,.688,1.959l-12.2,12.169a17.188,17.188,0,0,0-6.016-2.509V21.89A10.313,10.313,0,0,0,59.189,16.8ZM91.262,50.01a3.438,3.438,0,1,1-3.438-3.438h0A3.438,3.438,0,0,1,91.262,50.01ZM78.13,46.572H66.855a17.188,17.188,0,0,0-2.509-6.016l12.169-12.2a8.9,8.9,0,0,0,1.959.688l4.744,11.791a10.313,10.313,0,0,0-5.088,5.741ZM50.01,60.323A10.313,10.313,0,1,1,60.323,50.01,10.313,10.313,0,0,1,50.01,60.323ZM46.572,21.89V33.165a17.188,17.188,0,0,0-6.016,2.509l-12.2-12.169a8.9,8.9,0,0,0,.688-1.959L40.831,16.8a10.313,10.313,0,0,0,5.741,5.088ZM23.506,28.353l12.169,12.2a17.188,17.188,0,0,0-2.509,6.016H21.89A10.313,10.313,0,0,0,16.8,40.831L21.546,29.04a8.9,8.9,0,0,0,1.959-.688ZM21.89,53.448H33.165a17.188,17.188,0,0,0,2.509,6.016l-12.169,12.2a8.9,8.9,0,0,0-1.959-.688L16.8,59.189a10.313,10.313,0,0,0,5.088-5.741ZM53.448,78.13V66.855a17.188,17.188,0,0,0,6.016-2.509l12.2,12.169a8.9,8.9,0,0,0-.688,1.959L59.189,83.218a10.313,10.313,0,0,0-5.741-5.088Zm23.067-6.463-12.169-12.2a17.188,17.188,0,0,0,2.509-6.016H78.13a10.313,10.313,0,0,0,5.088,5.741L78.474,70.98a8.9,8.9,0,0,0-1.959.688Zm4.435-56.034a3.438,3.438,0,1,1-3.438,3.438A3.438,3.438,0,0,1,80.949,15.633ZM50.01,8.758A3.438,3.438,0,1,1,46.572,12.2,3.438,3.438,0,0,1,50.01,8.758ZM19.071,15.633a3.438,3.438,0,1,1-3.438,3.438A3.438,3.438,0,0,1,19.071,15.633Zm0,68.753a3.438,3.438,0,0,1,0-6.875h0a3.438,3.438,0,1,1,0,6.875ZM50.01,91.262a3.438,3.438,0,1,1,3.438-3.438A3.438,3.438,0,0,1,50.01,91.262Zm30.939-6.875a3.438,3.438,0,0,1,0-6.875h0a3.438,3.438,0,1,1,0,6.875Z"
    transform="translate(-2.048 -2.048)"
    fill="url(#a)"
  /></svg>
