<svg xmlns="http://www.w3.org/2000/svg" width="41.575" height="44.348" viewBox="0 0 41.575 44.348"><g transform="translate(-105 -104)"><path d="M16.158,0h0A4.159,4.159,0,0,0,12,4.158V8.315A1.386,1.386,0,0,0,13.386,9.7h5.543a1.386,1.386,0,0,0,1.386-1.386V4.158A4.159,4.159,0,0,0,16.158,0Zm1.386,4.158V6.929H14.772V4.158a1.386,1.386,0,0,1,2.772,0Z" transform="translate(102.701 104)" fill="#1e1e1e" fill-rule="evenodd"/><path d="M7.386,29.772H32.331a1.386,1.386,0,1,0,0-2.772H7.386a1.386,1.386,0,0,0,0,2.772Z" transform="translate(99 113.033)" fill="#1e1e1e" fill-rule="evenodd"/><path d="M7.886,13.772h23.56a1.386,1.386,0,0,0,0-2.772H7.886a1.386,1.386,0,0,0,0,2.772Z" transform="translate(99.193 108.245)" fill="#1e1e1e" fill-rule="evenodd"/><path d="M156.4,17.543a1.384,1.384,0,0,0-.765-1.239l-8.315-4.158a1.386,1.386,0,0,0-1.241,0L137.765,16.3A1.384,1.384,0,0,0,137,17.543a32.05,32.05,0,0,0,1.9,10.4c1.415,3.461,3.87,6.227,7.8,6.227s6.386-2.766,7.8-6.227A32.05,32.05,0,0,0,156.4,17.543Zm-2.8.845a27.465,27.465,0,0,1-1.668,8.508c-.98,2.395-2.516,4.505-5.237,4.505s-4.257-2.111-5.237-4.505a27.466,27.466,0,0,1-1.668-8.508s6.9-3.454,6.9-3.454Z" transform="translate(-9.826 111.402)" fill="#1e1e1e" fill-rule="evenodd"/><path d="M132.717,138.839a1.393,1.393,0,0,0-.206-.728c-2.046-3.315-2.46-8.282-2.544-10.248,0,0,1.985-.994,1.985-.994a1.384,1.384,0,0,0,.766-1.239v-5.654a4.158,4.158,0,0,0-1.452-3.157c-2.454-2.105-8.732-7.485-8.732-7.485a1.381,1.381,0,0,0-.9-.334h-5.543a1.381,1.381,0,0,0-.9.334s-6.278,5.38-8.732,7.485A4.158,4.158,0,0,0,105,119.976v22.285a4.159,4.159,0,0,0,4.158,4.158h19.4a4.159,4.159,0,0,0,4.158-4.158Zm-2.772.38v3.042a1.386,1.386,0,0,1-1.386,1.386h-19.4a1.386,1.386,0,0,1-1.386-1.386V119.976a1.388,1.388,0,0,1,.484-1.052l8.344-7.152h4.518l8.344,7.152a1.388,1.388,0,0,1,.484,1.052v4.8l-2.005,1a1.384,1.384,0,0,0-.766,1.239s.032,7.412,2.773,12.205Z" transform="translate(0 1.929)" fill="#1e1e1e" fill-rule="evenodd"/><path d="M0,1.386V4.158A1.386,1.386,0,0,0,1.386,5.543h4.8a1.386,1.386,0,0,0,0-2.772H2.772V1.386A1.386,1.386,0,0,0,0,1.386Z" transform="translate(132.333 134.537) rotate(-45)" fill="#1e1e1e" fill-rule="evenodd"/></g></svg>