<svg xmlns="http://www.w3.org/2000/svg" width="46.547" height="46.548" viewBox="0 0 46.547 46.548"><path d="M37.481,14.165A23.274,23.274,0,1,0,60.755,37.439,23.274,23.274,0,0,0,37.481,14.165Zm7.948,14.888a.4.4,0,0,1-.4.4H39.361V32.5h5.665a.4.4,0,0,1,.4.4v5.665a.4.4,0,0,1-.4.4H39.764V51.4a.4.4,0,0,1-.4.4H34.007a.4.4,0,0,1-.4-.4V38.97H29.936a.4.4,0,0,1-.4-.4V32.9a.4.4,0,0,1,.4-.4H33.6V30.2a.412.412,0,0,1,.011-.1c0-3.272.7-7.015,6.064-7.032l.036,0h5.311a.4.4,0,0,1,.4.4v5.576Z" transform="translate(-14.208 -14.165)" fill="#f87430"/></svg>