<svg width="19" height="19" viewBox="0 0 19 19" fill="none" xmlns="http://www.w3.org/2000/svg">
<path d="M9.22785 0.246948C7.03663 0.246899 4.9169 1.0266 3.24798 2.44651C1.57906 3.86642 0.469871 5.83388 0.118909 7.99682C-0.232053 10.1597 0.198115 12.377 1.33243 14.2518C2.46675 16.1265 4.23119 17.5365 6.31 18.2293C6.77139 18.3105 6.94395 18.0337 6.94395 17.791C6.94395 17.5723 6.93288 16.8451 6.93288 16.0727C4.61392 16.4991 4.01411 15.5071 3.82955 14.9885C3.62482 14.4835 3.30018 14.036 2.88369 13.6846C2.56072 13.512 2.09932 13.0848 2.8717 13.0737C3.16688 13.1056 3.45 13.2083 3.69707 13.3729C3.94413 13.5376 4.14785 13.7594 4.29094 14.0195C4.41712 14.2463 4.58679 14.4458 4.79023 14.6069C4.99367 14.7679 5.22689 14.8872 5.47652 14.9579C5.72615 15.0286 5.98728 15.0494 6.24495 15.019C6.50262 14.9886 6.75176 14.9077 6.9781 14.7808C7.01807 14.3115 7.22731 13.8727 7.56684 13.5462C5.51363 13.3155 3.36816 12.52 3.36816 8.99036C3.35508 8.07308 3.69351 7.18558 4.31401 6.5099C4.03192 5.71282 4.06493 4.83808 4.40629 4.06452C4.40629 4.06452 5.17866 3.82275 6.94395 5.01038C8.4539 4.59507 10.0479 4.59507 11.5579 5.01038C13.3223 3.81075 14.0956 4.06452 14.0956 4.06452C14.437 4.83806 14.47 5.71283 14.1878 6.5099C14.8102 7.18442 15.1489 8.0727 15.1337 8.99036C15.1337 12.5311 12.9762 13.3155 10.923 13.5462C11.1432 13.7694 11.3129 14.0373 11.4203 14.3319C11.5278 14.6265 11.5706 14.9407 11.5459 15.2533C11.5459 16.488 11.5348 17.48 11.5348 17.791C11.5348 18.0337 11.7074 18.3216 12.1688 18.2293C14.2438 17.5307 16.0029 16.1174 17.1323 14.2417C18.2616 12.366 18.6876 10.15 18.3343 7.9893C17.9809 5.82857 16.8711 3.86375 15.2031 2.44556C13.535 1.02738 11.4173 0.248139 9.22785 0.246948V0.246948Z" fill="black"/>
</svg>
