<svg xmlns="http://www.w3.org/2000/svg" width="20.308" height="20.289" viewBox="0 0 20.308 20.289"><path d="M21.748,8.755V8.7A10.174,10.174,0,0,0,2.64,8.7s0,0,0,.051a10.032,10.032,0,0,0,0,6.837s0,0,0,.051a10.174,10.174,0,0,0,19.107,0v-.051a10.032,10.032,0,0,0,0-6.837ZM4.3,14.209a7.956,7.956,0,0,1,0-4.07H6.191a17.021,17.021,0,0,0,0,4.07Zm.834,2.035H6.557a12.362,12.362,0,0,0,1.017,2.615,8.139,8.139,0,0,1-2.442-2.615ZM6.557,8.1H5.133A8.139,8.139,0,0,1,7.544,5.489,12.362,12.362,0,0,0,6.557,8.1Zm4.6,11.9a6.45,6.45,0,0,1-2.472-3.764h2.472Zm0-5.8H8.246a14.61,14.61,0,0,1,0-4.07h2.91Zm0-6.1H8.684A6.45,6.45,0,0,1,11.156,4.34Zm8.058,0H17.79a12.362,12.362,0,0,0-1.017-2.615A8.139,8.139,0,0,1,19.214,8.1ZM13.191,4.34A6.45,6.45,0,0,1,15.663,8.1H13.191Zm0,15.668V16.243h2.472a6.45,6.45,0,0,1-2.472,3.764Zm2.91-5.8h-2.91v-4.07H16.1a14.61,14.61,0,0,1,0,4.07Zm.7,4.65a12.362,12.362,0,0,0,1.017-2.615h1.424A8.139,8.139,0,0,1,16.8,18.858Zm3.246-4.65H18.156a16.441,16.441,0,0,0,.122-2.035,16.563,16.563,0,0,0-.122-2.035h1.892A7.956,7.956,0,0,1,20.048,14.209Z" transform="translate(-2.04 -2.029)" fill="#1e1e1e"/></svg>