<svg xmlns="http://www.w3.org/2000/svg" width="43.803" height="27.788" viewBox="0 0 43.803 27.788"><g transform="translate(0 -11.7)"><path d="M12.084,21.04a.523.523,0,0,1-.342-.137.666.666,0,0,1-.205-.89q.924-1.335,1.848-2.464a18.829,18.829,0,0,1,4.038-3.422A14.891,14.891,0,0,1,25.431,11.8a14.723,14.723,0,0,1,8.008,2.327,16.026,16.026,0,0,1,4.038,3.422,16.534,16.534,0,0,1,1.848,2.464.646.646,0,0,1-1.1.684,19.058,19.058,0,0,0-1.78-2.327,18.42,18.42,0,0,0-3.764-3.217,13.407,13.407,0,0,0-7.323-2.122,14.007,14.007,0,0,0-7.323,2.122,16.508,16.508,0,0,0-3.764,3.217A15.991,15.991,0,0,0,12.5,20.7C12.5,20.971,12.29,21.04,12.084,21.04Zm26.83,2.669H12.084a.684.684,0,1,1,0-1.369h26.83a.684.684,0,1,1,0,1.369Z" transform="translate(-3.598 -0.032)"/><path d="M39.358,23.686a.622.622,0,0,1-.548-.274L31.145,12.8a.684.684,0,0,1,1.1-.821l7.666,10.677a.746.746,0,0,1-.137.958C39.632,23.617,39.495,23.686,39.358,23.686Z" transform="translate(-9.791 -0.008)"/><path d="M18.684,23.678a.622.622,0,0,1-.548-.274l-3.9-5.065a.684.684,0,1,1,1.1-.821l2.738,3.491V14.643a.6.6,0,0,1,.411-.616.95.95,0,0,1,.753.137l6.434,7.118v-8.9a.686.686,0,0,1,.684-.684.647.647,0,0,1,.684.684V22.993a.6.6,0,0,1-.411.616.95.95,0,0,1-.753-.137l-6.5-7.118v6.639a.657.657,0,0,1-.479.616A.251.251,0,0,1,18.684,23.678Zm15.331,0a.251.251,0,0,1-.205-.068.657.657,0,0,1-.479-.616v-8.35a.684.684,0,0,1,1.369,0v6.434l2.738-3.491a.684.684,0,0,1,1.1.821l-3.97,4.928-.068.068A.458.458,0,0,1,34.015,23.678Z" transform="translate(-4.448)"/><g transform="translate(0 14.711)"><path d="M9.623,34.648a.686.686,0,0,1-.684-.684V19.454a1.985,1.985,0,0,0-3.97,0v14.51a.686.686,0,0,1-.684.684.647.647,0,0,1-.684-.684V19.454a3.354,3.354,0,0,1,6.707,0v14.51A.686.686,0,0,1,9.623,34.648Z" transform="translate(-1.136 -16.1)"/><path d="M10.324,45.375a.686.686,0,0,1-.684-.684V42.569H3.069v2.122a.684.684,0,0,1-1.369,0V41.884a.686.686,0,0,1,.684-.684h7.871a.686.686,0,0,1,.684.684v2.806A.6.6,0,0,1,10.324,45.375Z" transform="translate(-0.536 -24.021)"/><path d="M11.019,50.091H.684A.686.686,0,0,1,0,49.407V45.984A.686.686,0,0,1,.684,45.3H11.019a.686.686,0,0,1,.684.684v3.422A.8.8,0,0,1,11.019,50.091ZM1.3,48.722h9.034V46.669H1.3Z" transform="translate(0 -25.315)"/><g transform="translate(32.1)"><path d="M56.623,34.648a.686.686,0,0,1-.684-.684V19.454a1.985,1.985,0,0,0-3.97,0v14.51a.684.684,0,1,1-1.369,0V19.454a3.354,3.354,0,0,1,6.707,0v14.51A.736.736,0,0,1,56.623,34.648Z" transform="translate(-48.068 -16.1)"/><path d="M57.324,45.375a.686.686,0,0,1-.684-.684V42.569H50.069v2.122a.686.686,0,0,1-.684.684.647.647,0,0,1-.684-.684V41.884a.686.686,0,0,1,.684-.684h7.871a.686.686,0,0,1,.684.684v2.806A.632.632,0,0,1,57.324,45.375Z" transform="translate(-47.468 -24.021)"/><path d="M57.919,50.091H47.584a.686.686,0,0,1-.684-.684V45.984a.686.686,0,0,1,.684-.684H57.919a.686.686,0,0,1,.684.684v3.422A.686.686,0,0,1,57.919,50.091Zm-9.65-1.369H57.3V46.669H48.269Z" transform="translate(-46.9 -25.315)"/></g></g></g></svg>