<svg xmlns="http://www.w3.org/2000/svg" width="41.151" height="43.317" viewBox="0 0 41.151 43.317"><path d="M14.37,40.66V34.037a3.072,3.072,0,0,1,3.083-3.061h6.225a3.1,3.1,0,0,1,2.18.9,3.049,3.049,0,0,1,.9,2.164V40.66a2.628,2.628,0,0,0,.771,1.878,2.666,2.666,0,0,0,1.885.779h4.247a7.5,7.5,0,0,0,5.292-2.164A7.385,7.385,0,0,0,41.151,35.9V17.038a5.355,5.355,0,0,0-1.939-4.12L24.764,1.464a6.708,6.708,0,0,0-8.552.154L2.094,12.918A5.358,5.358,0,0,0,0,17.038V35.885a7.458,7.458,0,0,0,7.485,7.431h4.15a2.667,2.667,0,0,0,2.676-2.638Z" fill="#1e1e1e"/></svg>