<svg xmlns="http://www.w3.org/2000/svg" xmlns:xlink="http://www.w3.org/1999/xlink" viewBox="0 0 1052.73 273.91"><defs><style>.cls-1{fill:#fff;}.cls-2{fill:url(#New_Gradient_Swatch_2);}.cls-3{fill:url(#New_Gradient_Swatch_2-2);}</style><linearGradient id="New_Gradient_Swatch_2" x1="29.26" y1="44.71" x2="221.16" y2="205.73" gradientUnits="userSpaceOnUse"><stop offset="0" stop-color="#328b31"/><stop offset="1" stop-color="#96cf24"/></linearGradient><linearGradient id="New_Gradient_Swatch_2-2" x1="386.99" y1="-113" x2="897.01" y2="314.95" xlink:href="#New_Gradient_Swatch_2"/></defs><g id="Layer_2" data-name="Layer 2"><g id="Layer_1-2" data-name="Layer 1"><ellipse class="cls-1" cx="125.21" cy="125.09" rx="115.41" ry="115.31"/><path class="cls-2" d="M40.72,102.22l61.64-61.58L164,102.24,141.35,124.9,102.36,86l-39,38.93Zm45.84,45.87,0,0,61.64,61.58,61.66-61.6,0,0-22.69-22.63-39,38.94-39-38.93Zm87.55,92.48a125.41,125.41,0,1,0-48.8,9.84A125.23,125.23,0,0,0,174.11,240.57ZM125.31,20.85A104.32,104.32,0,1,1,20.9,125.17,104.49,104.49,0,0,1,125.31,20.85Z"/><path class="cls-3" d="M290.5,129.37h87.22V101h-54V2H290.5Zm231.85,0L468.93,2H434.77l-54.7,127.37h34.16l8.91-22.53h55.05l8.72,22.53ZM450.94,36,468.38,81.4H433.13ZM561.23,76.86V2H528V76.86q0,16.53,7.18,29A48.15,48.15,0,0,0,555.51,125q13.17,6.72,30.61,6.72T616.56,125a47.37,47.37,0,0,0,20-19.17q7-12.44,7-29V2H610.29V76.86q0,12.18-6.63,19.35t-17.35,7.18q-10.9,0-18-7.27T561.23,76.86Zm192.24,1.82L695.51,2H666.25V129.37h31.08V53.24l57.77,76.13h29.08V2H753.29ZM901.19,45.24,920.45,22A69.13,69.13,0,0,0,897,5.91a72.39,72.39,0,0,0-62.77,2.63,63.5,63.5,0,0,0-33.35,56.87,66.31,66.31,0,0,0,8.72,33.8,63.74,63.74,0,0,0,24,23.8A68.36,68.36,0,0,0,896,125.28a77.65,77.65,0,0,0,24.62-17.35L901.19,87a51.83,51.83,0,0,1-15.26,10.91,38.66,38.66,0,0,1-16.35,4A33,33,0,0,1,852,97.12,34,34,0,0,1,839.6,83.86a39.11,39.11,0,0,1-4.55-18.81,39.08,39.08,0,0,1,4.55-18.81A34,34,0,0,1,852,33a33,33,0,0,1,17.54-4.82,35.19,35.19,0,0,1,16.89,4.64A47.54,47.54,0,0,1,901.19,45.24Zm33.61,84.13h33.26V80.49h51.42v48.88h33.25V2h-33.25V54H968.06V2H934.8ZM292.13,169.74h58L290.5,242.88v6.78h71.26v-7.78h-60l59.47-73.27V162H292.13Zm126.34-8.53a45.75,45.75,0,0,0-23,6,45.13,45.13,0,0,0-16.63,16.12,42.31,42.31,0,0,0-6.15,22.33,43,43,0,0,0,6.15,22.46,46.23,46.23,0,0,0,79.29,0,43,43,0,0,0,6.15-22.46,42.31,42.31,0,0,0-6.15-22.33,45.18,45.18,0,0,0-16.62-16.12A45.8,45.8,0,0,0,418.47,161.21Zm.12,7.78A36.1,36.1,0,0,1,437,173.88a37.07,37.07,0,0,1,13.49,13.3,35.35,35.35,0,0,1,5,18.44,36,36,0,0,1-5,18.57A37.28,37.28,0,0,1,437,237.68a35.77,35.77,0,0,1-18.38,4.95A36.31,36.31,0,0,1,400,237.68a37.16,37.16,0,0,1-13.56-13.49,36,36,0,0,1-5-18.57,35.34,35.34,0,0,1,5-18.44A37.27,37.27,0,0,1,418.59,169Zm128.35,67.24L492.49,162h-9.16v87.7H492V175.39l54.32,74.27h9.16V162h-8.53Zm36.26,13.43h60.34v-7.78H591.85v-33h44.79V201.1H591.85V169.74h50.06V162H583.2Z"/><path class="cls-1" d="M715.17,174.6a43,43,0,0,0-12.06-1.94q-7.64,0-12.19,2.94a9.1,9.1,0,0,0-4.56,8.06,10.6,10.6,0,0,0,2.75,7.56,19.47,19.47,0,0,0,6.75,4.63q4,1.68,11.12,3.93A128.28,128.28,0,0,1,721.36,205a25,25,0,0,1,9.37,7.44q3.87,4.93,3.88,13.06a21.84,21.84,0,0,1-4.07,13.13,26,26,0,0,1-11.37,8.69,43.27,43.27,0,0,1-16.81,3.06,48.87,48.87,0,0,1-18.75-3.75,50.63,50.63,0,0,1-15.75-10l5.37-10.38a45.06,45.06,0,0,0,14.06,9.44A38.75,38.75,0,0,0,702.48,239q8.74,0,13.81-3.43a10.71,10.71,0,0,0,5.07-9.32,10.86,10.86,0,0,0-2.75-7.62,19.51,19.51,0,0,0-6.94-4.75A118.58,118.58,0,0,0,700.36,210a114.38,114.38,0,0,1-14.25-5.12,24.64,24.64,0,0,1-9.32-7.38Q673,192.66,673,184.66a20.6,20.6,0,0,1,3.88-12.38A24.46,24.46,0,0,1,687.73,164,42.67,42.67,0,0,1,704,161.16a52.62,52.62,0,0,1,15.44,2.31,51.87,51.87,0,0,1,13.44,6.19l-5,10.75A50.58,50.58,0,0,0,715.17,174.6Z"/><path class="cls-1" d="M732.85,183.53H745l18.5,54.63,18.25-54.63h12.12l18.38,54.63,18.25-54.63h12L818.1,249.66H806l-18.25-52-18.25,52H757.35Z"/><path class="cls-1" d="M883.23,249.66v-9.25q-7.38,9.75-23.13,9.75A26.38,26.38,0,0,1,848,247.53a19.3,19.3,0,0,1-8-7.25,19.6,19.6,0,0,1-2.81-10.37,17,17,0,0,1,6.56-14.06q6.57-5.19,18.31-5.32h21v-3.12q0-7-4.31-10.81t-12.56-3.82q-10,0-20.38,7.13l-4.87-8a60.71,60.71,0,0,1,13.19-6.69,45.09,45.09,0,0,1,14.43-2.06q12.38,0,19.13,6.06t6.87,16.94l.13,43.5Zm-6.94-13.06a15.55,15.55,0,0,0,6.81-10.44v-6.63H863.73q-7.87,0-11.69,2.38t-3.81,7.5a9.72,9.72,0,0,0,3.87,8.12q3.89,3,10.38,3A23.68,23.68,0,0,0,876.29,236.6Z"/><path class="cls-1" d="M960,187.41a29.2,29.2,0,0,1,11.25,11.87,40.16,40.16,0,0,1,.06,34.82,28.52,28.52,0,0,1-11.12,11.75A32.08,32.08,0,0,1,943.73,250a30.09,30.09,0,0,1-14.75-3.5,25.06,25.06,0,0,1-10-10v37.38H907.35V183.53H919v13.13a25.23,25.23,0,0,1,9.94-10,29.54,29.54,0,0,1,14.56-3.5A32,32,0,0,1,960,187.41Zm-7.31,49.5a20.6,20.6,0,0,0,7.87-8.38,25.66,25.66,0,0,0,2.81-12.12,25,25,0,0,0-2.87-12A21.23,21.23,0,0,0,952.6,196a21.65,21.65,0,0,0-11.37-3,22,22,0,0,0-11.44,3,21.16,21.16,0,0,0-7.94,8.38,26.92,26.92,0,0,0,0,24.19,21.24,21.24,0,0,0,7.94,8.31,23.31,23.31,0,0,0,22.88,0Z"/><path class="cls-1" d="M976,162.16h14l23,32.62,23.12-32.62h14.13l-29.63,42,32.13,45.5h-14.38L1013,214.28l-25.13,35.38H973.73l32-45Z"/></g></g></svg>